<?xml version="1.0" standalone="no"?><!DOCTYPE svg PUBLIC "-//W3C//DTD SVG 1.1//EN" "http://www.w3.org/Graphics/SVG/1.1/DTD/svg11.dtd"><svg t="1527421944291" class="icon" style="" viewBox="0 0 1025 1024" version="1.1" xmlns="http://www.w3.org/2000/svg" p-id="1689" xmlns:xlink="http://www.w3.org/1999/xlink" width="200.1953125" height="200"><defs><style type="text/css"></style></defs><path d="M676.729 828.849h-0.014l-3.27-0.071c-76.076-3.892-178.817-75.495-274.855-191.546l-35.472-42.85c-96.044-116.058-146.358-229.41-134.591-303.218 8.306-52.070 85.723-96.015 129.957-96.015 21.79 0 29.683 10.843 32.442 17.316 25.042 44.506 56.030 121.895 56.169 149.651l0.012 1.978-0.709 1.844c-5.523 14.589-17.879 21.578-28.784 27.745-14.363 8.117-22.526 13.446-23.52 28.787-0.297 4.66 3.718 25.839 67.082 103.948l27.087 32.707c63.539 74.983 83.532 83.057 88.212 83.724 15.318 2.129 22.534-4.587 33.554-16.668 8.389-9.198 17.905-19.636 33.609-21.938l1.986-0.285 1.956 0.419c27.668 5.836 98.492 51.476 138.701 85.365 5.803 3.85 15.935 15.292 7.913 40.561-12.585 39.686-67.445 98.546-117.462 98.546v0 0z" p-id="1690"></path></svg>